<?xml version="1.0" standalone="no"?>
<!DOCTYPE svg PUBLIC "-//W3C//DTD SVG 20010904//EN"
 "http://www.w3.org/TR/2001/REC-SVG-20010904/DTD/svg10.dtd">
<svg version="1.0" xmlns="http://www.w3.org/2000/svg"
 width="1024.000000pt" height="1024.000000pt" viewBox="0 0 1024.000000 1024.000000"
 preserveAspectRatio="xMidYMid meet">

<g transform="translate(0.000000,1024.000000) scale(0.100000,-0.100000)"
fill="#000000" stroke="none">
<path d="M5393 7985 c-95 -21 -186 -69 -259 -137 -71 -67 -102 -113 -136 -204
-22 -58 -22 -67 -26 -653 l-3 -593 25 -39 c83 -125 293 -100 342 41 5 14 9
259 9 545 l0 520 25 45 c15 27 41 53 65 67 40 23 43 23 441 23 l402 0 40 -54
c22 -29 93 -130 157 -225 113 -167 149 -206 210 -233 23 -10 176 -14 665 -19
478 -4 645 -9 675 -18 52 -17 119 -85 135 -136 8 -25 14 -137 17 -297 l5 -258
52 0 c125 -1 235 -20 320 -55 17 -8 18 4 14 331 -4 318 -6 343 -27 409 -62
190 -198 328 -386 393 l-80 27 -618 0 -618 0 -75 100 c-42 55 -106 146 -144
201 -87 128 -142 177 -229 206 -63 21 -84 22 -501 25 -342 2 -448 -1 -497 -12z"/>
<path d="M3685 6966 c-40 -19 -110 -86 -342 -327 -161 -167 -435 -450 -611
-628 -283 -288 -320 -323 -337 -313 -11 6 -159 128 -330 272 -170 143 -330
273 -355 288 -92 55 -220 29 -296 -60 -69 -83 -83 -192 -33 -261 13 -18 130
-132 259 -253 129 -120 269 -252 310 -292 l75 -72 -323 -318 c-299 -293 -324
-321 -338 -367 -44 -151 82 -304 252 -305 57 0 66 3 120 44 33 24 195 168 362
320 232 211 307 274 319 268 22 -13 871 -878 1051 -1072 84 -91 171 -177 193
-192 95 -63 200 -58 347 19 178 93 465 259 502 290 20 18 48 56 61 85 22 50
24 68 29 313 l5 261 34 68 c58 118 162 201 302 243 43 13 120 17 372 20 302 4
317 4 317 -14 0 -10 -39 -60 -86 -112 -94 -103 -114 -138 -114 -205 0 -56 14
-93 48 -130 60 -64 152 -82 228 -45 50 24 580 556 626 628 17 28 28 58 28 80
-1 77 -29 112 -325 404 -250 247 -292 284 -337 300 -95 33 -195 -7 -241 -97
-24 -45 -27 -138 -7 -176 7 -14 51 -64 98 -112 47 -49 81 -88 76 -88 -5 0
-231 0 -502 0 -337 0 -500 4 -514 11 -21 11 -21 15 -13 524 8 568 8 571 -55
646 -30 38 -272 180 -527 311 -128 66 -135 68 -205 68 -56 0 -85 -6 -123 -24z
m137 -983 c10 -222 -3 -1438 -16 -1441 -6 -1 -83 55 -171 125 -317 254 -738
597 -774 631 l-36 34 65 60 c36 33 159 132 274 221 115 89 304 235 419 325
116 89 215 162 222 162 8 0 14 -36 17 -117z"/>
<path d="M5945 6671 c-55 -3 -109 -11 -120 -18 -120 -69 -127 -265 -12 -341
l40 -27 471 -5 c437 -5 474 -6 509 -24 41 -20 70 -56 186 -229 92 -138 132
-182 195 -215 l51 -27 525 -5 c518 -5 526 -5 566 -27 51 -27 106 -89 124 -140
12 -31 15 -201 18 -938 3 -931 0 -1020 -37 -1093 -25 -50 -88 -106 -137 -123
-32 -12 -274 -14 -1409 -14 -1287 0 -1373 1 -1421 18 -60 21 -95 54 -126 122
-21 47 -23 66 -28 320 -5 295 -9 312 -67 353 -80 55 -174 53 -244 -5 -58 -49
-69 -90 -68 -253 0 -261 15 -479 37 -540 64 -181 194 -312 375 -379 l72 -26
1455 0 c1356 0 1459 1 1520 18 221 59 386 222 440 432 19 76 20 111 20 1092 0
886 -2 1024 -16 1090 -47 231 -208 405 -431 470 -49 14 -132 17 -553 22 l-495
6 -102 155 c-61 92 -124 175 -155 203 -63 57 -171 113 -247 127 -56 10 -756
11 -936 1z"/>
</g>
</svg>
